<?xml version="1.0" encoding="utf-8"?>
<!-- Generator: Adobe Illustrator 19.2.1, SVG Export Plug-In . SVG Version: 6.00 Build 0)  -->
<svg version="1.1" id="layer" xmlns="http://www.w3.org/2000/svg" xmlns:xlink="http://www.w3.org/1999/xlink" x="0px" y="0px"
	 viewBox="0 0 652 652" style="enable-background:new 0 0 652 652;" xml:space="preserve">
<style type="text/css">
	.st0{fill:#157BC0;}
	.st1{fill:#414141;}
</style>
<g>
	<path class="st0" d="M467.9,271.2h152.6v107.5H467.9V271.2z M492.2,361.4v-72.8h-3.5v72.8H492.2z M547.7,361.4v-72.8h-3.5v72.8
		H547.7z M554.6,361.4v-72.8h-3.5v72.8H554.6z M499.1,361.4v-72.8h-3.5v72.8H499.1z M530.3,361.4V344H506v-55.5h-3.5v72.8H530.3z
		 M561.5,344h10.4c15.3,0,27.7-12.4,27.7-27.7c0-15.3-12.4-27.7-27.7-27.7h-13.9v72.8h3.5V344z M561.5,305.9h10.4
		c5.7,0,10.4,4.7,10.4,10.4c0,5.7-4.7,10.4-10.4,10.4h-10.4V305.9z"/>
	<path class="st1" d="M388.2,329.8c-1.4,1-8.3,5.4-4.2-6.2c2.3-6.2,12.4-34.6,4.9-40.6c-3.7-2.9-11.3-5-14.9-1.4
		c-3.6,3.6-2.4,11.2-2.4,17c0,11.8-4.4,23.9-6.6,29.8c-5.2,4.3-8.6,6.8-10.4,7.3c0,0,3-11.1-5.2-10.8c-10,0.4-12.5,11.3-15.3,11.1
		c-3.6-0.3,0.6-7.6-0.3-9.7c-0.5-1-3.5-1.5-8.3-1.4c-11.4,0.3-11.4,9.7-11.4,11.1c0,4.2-2.3,13.4-3.5,20.5c-3,3-11.8,10.7-20.5,10.7
		c-5.5,0-14.2-4-14.9-12.5c-0.2-2.1,1-2.8,1.7-2.8c1,0,7.9,0.4,16-3.5c6.6-3.2,10.4-8,10.4-14.6c0-3.8-0.3-11.1-14.6-11.1
		c-14.6,0-26.9,6.6-31.2,19.4c-7.5-6.9-8.8-11.3-9.4-12.8c-0.7-2.1-0.5-5.9-7.3-5.9c-0.3,0-8.7,0-8.7,7.6c0,2.8,6.9,6.6,5.5,9.7
		c-1.7,3.8-7.6,23.2-19.8,23.2c-10.7,0-3.5-20.5-2.1-25c1-2.8,3.7-12.5,2.4-13.9c-0.7-0.7-2.8-1-5.9-1c-9.4,0-15.6,11.1-18.4,31.6
		c-7.9,7.9-14.9,11.8-21.2,11.8c-4.5,0-12.1-0.9-14.8-9.5c-0.6-2,28.3-8.3,28.3-23.8c0-4.5,0-11.1-14.6-11.1c-9,0-17.3,2.8-23.2,7.6
		c-2.9,2.4-10.8,10.4-9.7,26.7c-0.8,0.7-4.5,2.8-11.1,2.8c-10.4,0-16.3-19.4-17-22.5c-2.4-11.4-10.9-14.3-9-15.6
		c3.7-2.7,8.6-2.1,21.8-11.8c7.6-6.2,11.8-14.2,11.8-22.9c0-4.9-1.7-15.5-13.9-19.8c-7.4-2.4-15.1-3.6-22.9-3.5
		c-5.5,0-24.3,0.3-42.3,6.2c-22.9,9-34.7,21.5-35.7,38.8c-0.3,5.2,0.9,17,16.3,17c14.1,0,20.5-11.1,20.1-14.9
		c-1.6,0.8-8.3,2.3-10.9-1.4c-5.5-7.5,0.3-21.2,10.6-28.1c8.6-5.8,17.3-9,25.7-9.4c-1.4,2.1-5.2,8-6.9,13.2
		c-2.4,6.9-20.8,69.4-23.9,82.9c-1,4.9-1,7.2,0,7.3c6.6,0.6,20.9,0.8,21.2-2.4c1.3-18,9.1-39.9,10.1-46.1c0.4-2.4,2.4-2.8,3.1-2.8
		c1.7,0,3.5,1.4,4.5,2.4c2.4,3.1,4.9,8.3,4.5,17c-0.3,6.9-1,30.9,18.7,30.9c13.2,0,26.1-9.1,27.1-10.8c1.4,3.5,6.6,11.4,22.9,11.4
		c18,0,30.5-12.1,30.9-11.8c0.3,0.3,0.4,1,0.3,1.7c-0.1,2.8,0.9,9.9,12.1,9.7c24.5-0.3,38.8-20,41.6-33.3c4.5,4.9,8,6.3,9,6.6
		c0,3.1-6.2,27.1,23.6,27.1c11.7,0,21.5-4.4,29.5-13.2c-0.6,3.1-2.9,9.3-1.7,12.1c0.1,0.3,8.9,0,14.9,0c2.3,0,2.1-0.5,2.3-1.2
		c1.4-5.3-0.9-18.4,11.3-34.5c1.3-1.7,3.1-2.5,3.8-0.6c3.5,8.9,12.8,5.7,22.5-4.6c-2.1,7.9-3.1,14.7-3.1,20.5
		c0,7.3,2.1,22,22.2,21.5c27.3-0.7,34-20.5,34-35c0-4.2-2.6-15.6-16-15.3C394.8,325.5,391,327.7,388.2,329.8L388.2,329.8z
		 M396.8,348.9c-1.4,7.5-9.1,23.8-14.9,23.2c-7.5-0.7-5.9-14.6-4.9-20.5c1.4-5.5,5.7-19.6,14.2-19.1
		C399.8,333.1,398.2,341.6,396.8,348.9z M289,328.8c9.5-0.3,5.1,10.8-0.3,15.6c-7.8,6.9-11.7,6.2-13,5.2c-1.6-1.4-0.6-5.9,2.4-11.3
		C281.2,332.6,283.9,329,289,328.8z M177.3,334.3c0.3,3.1-5.9,14.4-20.5,18.4c-1.4-3.9,0.9-9.8,2.4-12.5c1.1-2,5.6-10.9,12.1-11.4
		C175,328.5,177,330.4,177.3,334.3z M102.7,270.9c1.4,0,5.2,1.4,8.3,4.9c2.1,2.4,4.5,6.6,3.8,12.8c-0.7,6.6-2.4,12.5-4.9,17
		c-2.1,3.8-4.9,6.9-8,9.4c-5.4,4.6-16.9,5.3-17.7,3.8c-0.7-1-0.3-2.8,1.4-7.6c2.4-7.8,11.2-34.2,13.2-37.1
		C99.6,272.6,100.9,270.9,102.7,270.9z"/>
</g>
</svg>
